<?xml version="1.0" encoding="UTF-8" standalone="no"?>
<!DOCTYPE svg PUBLIC "-//W3C//DTD SVG 1.1//EN" "http://www.w3.org/Graphics/SVG/1.1/DTD/svg11.dtd">
<svg width="100%" height="100%" viewBox="0 0 800 200" version="1.1" xmlns="http://www.w3.org/2000/svg" xmlns:xlink="http://www.w3.org/1999/xlink" xml:space="preserve" xmlns:serif="http://www.serif.com/" style="fill-rule:evenodd;clip-rule:evenodd;stroke-linejoin:round;stroke-miterlimit:2;">
    <path d="M56.458,138.028C48.323,146.615 39.074,154.648 29.218,162.498C27.383,163.959 27.08,166.635 28.541,168.47C30.002,170.305 32.678,170.608 34.513,169.147C42.805,162.543 50.662,155.798 57.829,148.728C59.135,153.358 61.339,158.076 64.322,161.978C67.95,166.723 72.702,170.248 78.227,171.369C85.416,172.826 91.448,169.414 96.137,163.593C101.964,156.358 105.633,145.279 107.296,139.007C111.932,121.522 116.842,103.551 130.538,96.096C128.84,98.349 127.326,100.678 125.987,102.841C120.799,111.22 115.237,128.194 116.049,142.704C116.647,153.375 120.667,162.67 129.7,167.307C132.399,168.692 135.598,168.697 138.918,167.562C144.388,165.691 150.382,160.432 153.309,157.895C162.807,149.658 170.858,139.328 174.218,127.594C176.193,125.745 178.081,123.515 179.902,121.023C183.587,115.979 187.126,109.954 191.052,105.048C194.24,101.064 197.55,97.719 201.781,97.243C202.18,97.199 202.492,97.417 202.786,97.671C203.291,98.109 203.722,98.693 204.124,99.341C206.312,102.871 207.443,108.03 208.185,110.696C210.197,117.925 208.651,133.335 210.676,145.559C212.344,155.629 216.507,163.576 224.588,165.992C228.649,167.206 232.537,165.814 235.891,162.862C239.495,159.689 242.46,154.585 244.253,151.585C249.463,142.871 251.613,132.893 253.626,122.82C255.457,113.655 257.164,104.405 261.68,96.221C261.832,95.945 262.138,95.936 262.439,95.921C263.214,95.883 264.068,96.059 264.951,96.322C269.178,97.579 273.921,100.881 275.095,102.453C275.448,102.925 275.46,103.558 275.486,104.226C275.538,105.6 275.34,107.114 275.141,108.646C274.563,113.105 274.216,117.651 275.856,120.891C278.691,126.489 285.172,129.293 290.837,130.381L291.503,130.504C289.696,138.675 289.331,146.996 291.414,153.656C291.774,154.807 292.596,156.097 294.018,157.288C295.83,158.807 298.979,160.412 302.567,161.763C307.477,163.612 313.219,165.069 316.807,165.544C319.293,165.874 321.134,165.616 321.963,165.275C324.499,164.233 326.683,162.402 328.549,160.172C330.792,157.49 332.566,154.207 334.16,151.656C335.403,149.667 334.797,147.043 332.808,145.8C330.819,144.557 328.194,145.163 326.951,147.152C325.749,149.077 324.456,151.477 322.881,153.626C321.825,155.067 320.67,156.435 319.195,157.196C317.884,156.967 310.331,155.604 305.562,153.808C303.109,152.884 300.013,151.035 299.389,150.655C297.755,144.99 298.228,138.007 299.892,131.173C304.13,131.053 308.013,130.171 311.487,128.514C317.412,125.687 322.246,120.606 325.541,112.818C326.058,111.596 329.017,103.38 329.3,97.901C329.524,93.567 327.786,90.564 325.42,89.492C322.396,88.122 318.743,88.728 315.136,91.12C309.581,94.804 303.775,102.994 301.937,105.628C298.864,110.03 295.976,115.899 293.811,122.272C293.358,122.202 292.901,122.122 292.441,122.034C289.154,121.403 285.084,120.299 283.44,117.051C282.968,116.119 283.043,114.942 283.124,113.702C283.255,111.685 283.633,109.537 283.835,107.498C284.228,103.542 283.821,99.93 281.905,97.366C279.89,94.669 270.902,88.222 264.091,87.497C259.814,87.041 256.27,88.43 254.237,92.115C249.3,101.064 247.292,111.134 245.291,121.155C243.47,130.267 241.67,139.341 236.958,147.223C235.709,149.311 233.845,152.665 231.508,155.252C230.767,156.072 229.985,156.812 229.141,157.341C228.475,157.758 227.781,158.075 227.022,157.848C224.782,157.178 223.214,155.628 222.04,153.609C220.537,151.024 219.654,147.744 219.062,144.169C216.985,131.631 218.437,115.832 216.373,108.417C215.484,105.221 213.971,99.093 211.347,94.862C208.79,90.738 205.198,88.306 200.831,88.797C196.45,89.289 192.519,91.471 188.955,94.776C184.456,98.949 180.504,105.013 176.629,110.812L175.733,112.148C175.652,111.223 175.538,110.292 175.391,109.356C174.604,104.339 172.177,101.54 169.291,100.136C165.394,98.24 159.953,99.043 155.072,102.041C151.251,104.388 147.804,107.976 145.915,111.826C144.442,114.829 143.893,117.998 144.501,120.984C145.446,125.62 149.22,130.346 158.528,132.735C160.025,133.119 161.477,133.258 162.888,133.177C159.255,140.086 153.77,146.244 147.74,151.473C145.649,153.287 141.75,156.871 137.798,158.829C136.967,159.24 136.139,159.576 135.333,159.76C134.705,159.903 134.102,160.012 133.581,159.745C127.252,156.496 124.955,149.706 124.536,142.229C123.824,129.522 128.671,114.653 133.214,107.315C136.221,102.459 140.013,96.228 145.424,93.664C146.56,93.633 152.636,93.466 153.983,93.325C156.899,93.021 157.78,90.857 157.939,90.396C158.427,88.986 158.508,87.204 156.551,85.65C156.339,85.482 155.225,84.755 152.56,84.436C116.53,80.127 106.666,108.216 99.08,136.829C97.635,142.28 94.582,151.973 89.517,158.261C86.942,161.458 83.865,163.839 79.916,163.038C76.356,162.316 73.412,159.873 71.075,156.816C67.589,152.255 65.436,146.265 65.025,141.247C84.414,119.944 97.231,95.327 97.231,62.82C97.231,58.057 99.065,41.218 96.333,30.843C94.702,24.649 91.336,20.558 86.584,19.708C81.859,18.862 77.755,21.5 74.821,26.772C70.246,34.992 68.335,50.458 67.162,55.267C60.764,81.497 56.603,110.906 56.458,138.028ZM65.194,128.009C79.551,109.989 88.731,89.228 88.731,62.82C88.731,58.958 90.122,46.7 88.881,37.095C88.529,34.372 87.986,31.886 87.02,30.013C86.53,29.063 86.014,28.241 85.086,28.075C84.23,27.921 83.73,28.706 83.141,29.501C82.228,30.733 81.462,32.341 80.774,34.131C77.693,42.136 76.365,53.405 75.42,57.281C69.958,79.672 66.157,104.435 65.194,128.009ZM166.643,123C167.487,119.063 167.664,114.946 166.994,110.673C166.764,109.21 166.414,108.189 165.572,107.779C164.946,107.475 164.195,107.526 163.411,107.673C162.132,107.912 160.8,108.498 159.521,109.284C157.434,110.566 155.495,112.39 154.193,114.426C153.19,115.995 152.502,117.675 152.83,119.286C153.315,121.666 155.863,123.276 160.641,124.502C162.884,125.077 164.821,124.348 166.643,123ZM320.743,97.666L320.735,97.67C319.854,98.122 318.965,98.789 318.08,99.556C314.027,103.066 310.256,108.56 308.906,110.494C306.654,113.72 304.471,117.865 302.682,122.41C304.508,122.121 306.227,121.605 307.827,120.842C312.057,118.824 315.36,115.066 317.712,109.506C318.077,108.643 319.939,103.551 320.611,99.271C320.686,98.792 320.725,98.204 320.743,97.666Z"/>
    <path d="M373.78,152.067C373.623,151.489 373.463,150.914 373.433,150.837C373.233,150.316 372.975,149.998 372.805,149.81C372.017,148.935 371.134,148.741 370.417,148.734C369.682,148.727 368.937,148.935 368.248,149.536C368.159,149.614 367.114,150.385 367.114,152.616C367.114,153.29 367.319,153.917 367.672,154.436C368.025,155.572 368.58,156.925 369.334,157.715C370.518,158.955 372.015,159.493 373.848,158.946C379.207,157.343 385.697,152.318 391.015,149.816C394.855,148.009 397.809,144.844 400.162,141.052C403.258,136.065 405.298,129.965 407.401,125.23C411.946,114.999 417.839,97.009 424.769,81.774C429.158,72.126 433.888,63.58 439.063,59.216C444.178,54.902 450.894,52.235 456.614,48.852C457.321,48.434 458.132,47.973 459.027,47.492C458.134,48.387 457.28,49.263 456.468,50.091C437.85,69.057 423.379,94.663 414.027,119.314C411.776,125.244 409.627,133.529 409.967,141.195C410.213,146.759 411.765,151.996 415.244,156.011C416.295,157.223 418.355,158.138 421.02,158.387C424.942,158.754 430.531,157.934 432.631,157.934C441.192,157.934 448.577,153.543 455.1,147.183C462.246,140.217 468.355,130.845 474.145,123.398C472.684,126.417 471.454,129.216 470.478,131.454C469.475,133.756 466.311,140.333 466.011,145.149C465.812,148.347 466.795,150.924 468.912,152.409C474.133,156.068 479.956,154.51 485.349,150.093C489.594,146.618 493.59,141.346 496.645,136.853C496.549,139.144 496.81,141.371 497.585,143.49C498.821,146.872 501.34,150.051 506.067,152.698C513.748,156.998 521.035,153.144 526.838,145.336C534.205,135.424 539.206,119.213 540.095,112.387C540.504,109.25 542.608,104.377 543.964,101.479C544.383,101.596 544.783,101.705 545.103,101.789C550.133,103.115 555.466,102.836 560.539,101.598C556.435,108.32 548.838,122.474 546.387,133.32C545.535,137.091 545.306,140.51 545.856,143.209C546.326,145.519 547.343,147.386 548.888,148.744C549.798,149.544 550.968,149.996 552.391,149.994C553.579,149.993 555.062,149.619 556.659,148.888C561.205,146.807 567.258,141.635 568.715,140.386C574.643,135.304 584.033,125.652 590.597,115.762C594.557,109.796 597.443,103.705 598.221,98.401C600.304,98.083 603.413,97.789 605.968,98.315C607.14,98.556 608.339,98.819 608.393,100.052C608.8,109.306 605.057,120.042 601.056,128.357C599.212,132.19 594.202,139.121 594.202,139.121C593.257,140.434 593.421,142.242 594.588,143.363C595.754,144.484 597.568,144.576 598.842,143.579C598.842,143.579 600.218,142.503 600.902,141.961C605.246,138.517 608.443,134.073 611.617,129.572C614.465,125.533 617.327,120.328 620.563,115.443C622.638,112.31 624.856,109.299 627.372,106.915C623.868,112.595 620.984,118.919 619.823,125.062C618.354,132.834 619.561,140.325 625.09,146.228C626.158,147.368 627.607,149.805 629.225,151.242C630.478,152.355 631.857,153.001 633.217,153.103C642.158,153.771 649.513,149.927 655.398,143.895C661.16,137.987 665.473,129.927 668.502,122.428C668.779,122.203 669.054,121.973 669.328,121.737C672.861,118.7 676.22,114.829 679.017,111.493C679.44,112.033 679.982,112.386 680.596,112.594C681.298,112.832 682.322,112.987 683.587,112.246C692.189,107.207 699.163,97.223 706.262,90.151C703.72,95.379 700.5,102.786 700.052,108.526C699.675,113.357 701.145,117.171 704.801,119.093C717.89,125.976 727.934,122.285 737.119,116.187C744.976,110.97 752.027,103.685 760.313,101.744C760.738,101.793 764.057,102.183 767.106,102.753C776.69,104.544 791.833,107.866 797.542,107.866C799.336,107.866 800.792,106.41 800.792,104.616C800.792,102.823 799.336,101.366 797.542,101.366C792.054,101.366 777.513,98.085 768.3,96.363C763.618,95.488 760.075,95.133 759.06,95.361C749.989,97.401 742.107,105.073 733.524,110.772C726.213,115.626 718.244,118.818 707.826,113.34C707.065,112.941 706.748,112.2 706.598,111.342C706.33,109.805 706.571,107.961 707.027,106.003C708.644,99.056 713.131,90.956 714.659,87.911L714.666,87.898C714.982,87.353 716.587,84.559 717.613,82.351C718.314,80.842 718.706,79.482 718.737,78.792C718.826,76.823 717.749,75.83 716.71,75.36C715.811,74.954 713.995,74.843 711.953,76.146C708.803,78.155 703.062,84.195 702.527,84.71C697.989,89.082 693.586,94.878 688.746,99.775C689.779,97.62 690.602,95.945 690.602,95.945C691.366,94.391 690.777,92.51 689.263,91.67C687.749,90.829 685.841,91.324 684.926,92.794C684.926,92.794 680.81,99.436 678.233,102.348C677.08,103.649 675.677,105.382 674.093,107.277C674.908,105.197 675.668,102.977 675.975,100.93C676.634,96.549 675.51,92.845 671.497,90.9C666.999,88.721 663.287,88.675 660.292,89.801C657.273,90.936 654.88,93.342 653.166,96.564C650.275,101.997 649.337,109.886 649.784,116.056C650.08,120.151 651.053,123.517 652.227,125.23C653.34,126.852 654.756,127.542 656.126,127.614C657.108,127.666 658.109,127.578 659.121,127.366C656.843,131.737 654.071,135.946 650.745,139.356C646.245,143.968 640.698,147.081 633.883,146.633C633.716,146.487 633.001,145.853 632.626,145.395C631.557,144.084 630.599,142.601 629.834,141.785C625.795,137.473 625.137,131.947 626.21,126.269C628.012,116.736 634.562,106.779 640.482,100.115C640.732,99.834 641.273,99.312 642.004,98.659C643.405,97.989 644.778,97.284 646.091,96.506C648.24,95.231 650.401,93.988 652.545,92.706C652.845,92.618 653.865,92.315 654.203,92.146C654.84,91.828 655.262,91.411 655.532,91.045C656.036,90.361 656.228,89.624 656.19,88.867C656.154,88.163 655.942,87.273 654.998,86.444C653.841,85.427 651.909,84.939 649.469,85.781C646.345,86.858 641.534,90.541 638.437,93.194C634.65,95.008 630.692,96.602 627.258,98.771C623.467,101.165 620.16,104.789 617.199,108.878C615.663,110.999 614.219,113.246 612.834,115.482C614.268,110.185 615.107,104.775 614.887,99.767C614.688,95.257 611.566,92.829 607.277,91.948C602.706,91.008 596.734,92.017 594.98,92.377C592.166,92.955 591.932,95.647 591.932,95.66C591.932,100.523 589.035,106.362 585.182,112.168C578.974,121.52 570.091,130.645 564.485,135.451C563.371,136.405 559.27,139.966 555.565,142.129C554.668,142.653 553.379,143.142 552.753,143.366C552.349,142.753 552.184,141.947 552.099,141.043C551.929,139.232 552.2,137.086 552.727,134.753C555.486,122.548 565.258,105.865 567.84,102.265C568.524,101.311 569.984,99.146 571.674,97.045C573.34,95.933 574.897,94.633 576.364,93.314C576.498,93.231 577.408,92.66 577.71,92.432C578.347,91.951 578.68,91.432 578.836,91.122C579.562,89.674 579.208,88.487 578.453,87.559C578.101,87.126 577.384,86.325 575.789,86.325C574.214,86.325 572.145,87.27 570.16,89.087C569.217,89.95 568.249,91.011 567.327,92.115C566.826,92.416 566.31,92.69 565.778,92.929C559.961,95.548 553.079,97.17 546.76,95.504C545.545,95.184 543.128,94.489 543.128,94.489C541.629,94.058 540.035,94.754 539.331,96.146C539.331,96.146 534.357,106.121 533.65,111.547C532.843,117.743 528.308,132.461 521.621,141.459C518.047,146.268 513.973,149.675 509.242,147.026C506.332,145.397 504.61,143.564 503.781,141.496C502.448,138.17 503.282,134.449 504.336,130.696C505.815,125.426 507.843,120.1 507.843,115.412C507.843,113.659 506.996,112.86 506.523,112.484C505.552,111.713 504.304,111.366 502.806,112.178C502.424,112.385 501.807,112.854 501.231,113.683C500.419,114.853 499.18,117.419 498.67,118.61C497.426,121.513 496.79,124.651 495.086,127.334C492.45,131.485 487.15,140.218 481.232,145.064C478.365,147.412 475.419,149.031 472.644,147.086C472.415,146.926 472.509,146.598 472.492,146.277C472.454,145.582 472.552,144.809 472.713,144.004C473.483,140.154 475.692,135.759 476.436,134.052C479.006,128.159 483.394,118.083 489.212,110.979C491.387,108.322 493.723,106.041 496.275,104.782C498.23,104.345 500.521,103.83 501.089,103.696C501.938,103.495 502.358,103.165 502.418,103.121C503.886,102.059 503.842,100.738 503.726,99.991C503.646,99.47 503.216,97.235 500.509,97.235C498.511,97.235 496.561,97.662 494.676,98.443C493.256,98.761 491.951,99.066 491.436,99.219C490.69,99.44 490.265,99.738 490.117,99.851C484.302,104.291 478.403,108.594 473.475,114.035C467.622,120.496 461.617,130.132 454.661,138.156C448.376,145.405 441.371,151.434 432.631,151.434C430.887,151.434 426.658,152.039 423.091,151.988C421.953,151.971 420.338,151.65 420.012,151.582C417.584,148.679 416.636,144.883 416.46,140.907C416.161,134.146 418.119,126.85 420.104,121.619C429.149,97.779 443.1,72.987 461.106,54.644C465.489,50.179 471.059,43.667 477.491,42.217C480.75,41.482 484.526,42.267 487.058,44.403C488.131,45.309 489.997,48.505 490.316,48.897C492.193,51.203 494.524,49.735 494.896,49.443C495.028,49.339 496.983,47.793 495.638,45.072C494.332,42.431 492.931,39.454 490.688,37.435C486.922,34.048 481.135,33.399 474.9,34.571C466.828,36.089 457.986,40.488 453.305,43.257C447.283,46.819 440.258,49.705 434.872,54.247C429.146,59.076 423.709,68.405 418.852,79.083C411.914,94.337 406.011,112.348 401.461,122.592C399.778,126.38 398.161,131.088 395.947,135.322C394.04,138.967 391.726,142.297 388.247,143.934C383.773,146.039 378.472,150.105 373.78,152.067ZM663.114,118.408C664.025,116.013 664.795,113.706 665.434,111.597C666.13,109.303 668.135,105.446 669.152,101.768C669.465,100.634 669.685,99.527 669.643,98.524C669.612,97.78 669.403,97.108 668.662,96.75C665.904,95.413 663.726,95.225 662.011,96.143C659.046,97.73 657.614,101.757 656.812,105.983C655.901,110.78 656.007,115.984 656.814,119.408C656.948,119.977 657.21,120.651 657.397,121.097C659.29,120.901 661.206,119.843 663.114,118.408Z"/>
</svg>
